HIERARCHY
ROOT Hips
{
	OFFSET	0.00	0.00	0.00
	CHANNELS 6 Xposition Yposition Zposition Zrotation Xrotation Yrotation
	JOINT LeftUpLeg
	{
		OFFSET	 0.126116	-0.014019	-0.065224
		CHANNELS 3 Zrotation Xrotation Yrotation
		JOINT LeftLeg
		{
			OFFSET	 0.000000	 0.000000	 0.569914
			CHANNELS 3 Zrotation Xrotation Yrotation
			JOINT LeftFoot
			{
				OFFSET	 0.000000	 0.000000	 0.544423
				CHANNELS 3 Zrotation Xrotation Yrotation
				JOINT LeftToeBase
				{
					OFFSET	 0.000000	 0.000000	 0.207117
					CHANNELS 3 Zrotation Xrotation Yrotation
					End Site
					{
						OFFSET	 0.000000	 0.000000	 0.207117
					}
				}
			}
		}
	}
	JOINT RightUpLeg
	{
		OFFSET	-0.124023	-0.008373	-0.065224
		CHANNELS 3 Zrotation Xrotation Yrotation
		JOINT RightLeg
		{
			OFFSET	 0.000000	 0.000000	 0.570047
			CHANNELS 3 Zrotation Xrotation Yrotation
			JOINT RightFoot
			{
				OFFSET	 0.000000	 0.000000	 0.544354
				CHANNELS 3 Zrotation Xrotation Yrotation
				JOINT RightToeBase
				{
					OFFSET	 0.000000	 0.000000	 0.207540
					CHANNELS 3 Zrotation Xrotation Yrotation
					End Site
					{
						OFFSET	 0.000000	 0.000000	 0.207540
					}
				}
			}
		}
	}
	JOINT Spine
	{
		OFFSET	 0.000184	-0.007763	 0.117403
		CHANNELS 3 Zrotation Xrotation Yrotation
		JOINT Spine1
		{
			OFFSET	 0.000000	 0.000000	 0.137269
			CHANNELS 3 Zrotation Xrotation Yrotation
			JOINT Spine2
			{
				OFFSET	 0.000000	 0.000000	 0.156879
				CHANNELS 3 Zrotation Xrotation Yrotation
				JOINT LeftShoulder
				{
					OFFSET	 0.080501	-0.002496	 0.160144
					CHANNELS 3 Zrotation Xrotation Yrotation
					JOINT LeftArm
					{
						OFFSET	 0.000000	 0.000000	 0.164363
						CHANNELS 3 Zrotation Xrotation Yrotation
						JOINT LeftForeArm
						{
							OFFSET	 0.000000	 0.000000	 0.364576
							CHANNELS 3 Zrotation Xrotation Yrotation
							JOINT LeftHand
							{
								OFFSET	 0.000000	 0.000000	 0.360812
								CHANNELS 3 Zrotation Xrotation Yrotation
								JOINT LeftHandIndex1
								{
									OFFSET	 0.000000	 0.000000	 0.086006
									CHANNELS 3 Zrotation Xrotation Yrotation
									JOINT LeftHandIndex2
									{
										OFFSET	 0.000000	 0.000000	 0.047236
										CHANNELS 3 Zrotation Xrotation Yrotation
										JOINT LeftHandIndex3
										{
											OFFSET	-0.004284	-0.000551	 0.038166
											CHANNELS 3 Zrotation Xrotation Yrotation
											End Site
											{
												OFFSET	-0.004284	-0.000551	 0.038166
											}
										}
									}
								}
							}
						}
					}
				}
				JOINT Neck
				{
					OFFSET	 0.000000	 0.000000	 0.176489
					CHANNELS 3 Zrotation Xrotation Yrotation
					JOINT Head
					{
						OFFSET	 0.000000	-0.001747	 0.077940
						CHANNELS 3 Zrotation Xrotation Yrotation
						End Site
						{
							OFFSET	 0.000000	-0.001747	 0.077940
						}
					}
				}
				JOINT RightShoulder
				{
					OFFSET	-0.080363	 0.000306	 0.159706
					CHANNELS 3 Zrotation Xrotation Yrotation
					JOINT RightArm
					{
						OFFSET	 0.000000	 0.000000	 0.164196
						CHANNELS 3 Zrotation Xrotation Yrotation
						JOINT RightForeArm
						{
							OFFSET	 0.000000	 0.000000	 0.365611
							CHANNELS 3 Zrotation Xrotation Yrotation
							JOINT RightHand
							{
								OFFSET	 0.000000	 0.000000	 0.360648
								CHANNELS 3 Zrotation Xrotation Yrotation
								JOINT RightHandIndex1
								{
									OFFSET	 0.000000	 0.000000	 0.069977
									CHANNELS 3 Zrotation Xrotation Yrotation
									JOINT RightHandIndex2
									{
										OFFSET	 0.000000	 0.000000	 0.052305
										CHANNELS 3 Zrotation Xrotation Yrotation
										JOINT RightHandIndex3
										{
											OFFSET	 0.009002	-0.000782	 0.042196
											CHANNELS 3 Zrotation Xrotation Yrotation
											End Site
											{
												OFFSET	 0.009002	-0.000782	 0.042196
											}
										}
									}
								}
							}
						}
					}
				}
			}
		}
	}
}
MOTION
Frames:    10
Frame Time: 0.03333334
-7.120780	-19.901570	-0.124285	-42.730060	 8.525420	 1.754346	 4.561418	-21.973980	 173.701800	-1.631306	-41.860900	-0.252513	 0.058806	 85.523280	-0.568909	-2.385895	 28.438120	 0.000319	-2.528363	-22.809430	-178.744700	-0.118316	-42.862880	 0.030379	-0.325468	 86.523960	 0.599512	 2.407686	 17.322950	-0.225759	-0.071304	 9.489837	-0.366227	 0.436404	 7.642858	-2.528099	 0.673220	 5.180737	 0.014100	-126.207100	 89.581760	-143.135400	 65.830120	 61.730900	-88.469960	-5.501783	-4.662061	-22.088150	 5.315017	-17.400900	-5.587708	-3.812334	 37.924440	-2.927599	-2.450526	 36.184240	 0.754587	-1.378229	 35.397820	-2.634230	 0.466327	 3.154980	-0.656818	 0.801119	 8.122342	-0.217479	 94.361510	 86.809480	 172.048900	-65.904430	 73.842840	 82.050330	-3.348237	-15.272810	 27.013660	-24.604060	-18.233190	 10.080310	 6.437017	 35.671460	-0.771858	 2.830251	 35.756010	-7.813440	-2.350882	 35.473990	 5.254307
-7.116961	-19.897890	-0.126954	-42.755070	 8.011245	 1.693542	 4.521136	-22.008910	 174.192700	-1.644314	-39.931810	-0.193415	 0.059435	 84.603300	-0.527988	-2.385718	 28.478300	-0.000549	-2.489651	-22.887210	-178.751800	-0.118139	-40.850260	-0.004686	-0.175840	 85.530730	 0.413587	 2.407690	 17.354360	-0.225150	-0.133372	 9.033529	-0.378634	 0.350315	 6.968843	-2.353539	 0.626667	 4.642482	 0.016077	-115.584600	 89.397370	-153.647000	 56.153410	 60.065020	-78.317760	-3.699574	-4.414441	-20.716010	 5.238000	-17.406010	-5.590156	-3.812334	 37.924440	-2.927599	-2.450526	 36.184240	 0.754587	-1.378229	 35.397820	-2.634230	 0.458996	 2.661888	-0.636642	 0.729925	 7.613283	-0.183443	 94.724050	 86.914790	 171.583000	-53.519710	 70.357540	 71.693560	-3.214800	-13.014620	 25.782560	-21.510880	-18.240620	 10.082190	 6.437017	 35.671460	-0.771858	 2.830251	 35.756010	-7.813440	-2.350882	 35.473990	 5.254307
-7.116315	-19.897850	-0.122231	-42.770020	 8.049573	 1.750777	 4.531535	-22.181460	 174.157300	-1.685276	-40.278560	-0.222862	 0.155076	 84.720950	-0.654520	-2.385731	 28.476040	-0.000496	-2.464884	-23.068890	-178.762000	-0.109400	-41.106200	 0.021449	-0.318123	 85.632470	 0.587898	 2.407688	 17.526620	-0.221782	-0.196465	 9.086117	-0.428321	 0.346411	 6.932085	-2.378150	 0.622412	 4.591927	 0.016246	-115.679400	 89.396390	-153.538100	 55.992890	 59.677760	-78.090870	-3.680270	-4.316355	-21.025520	 4.853376	-17.437000	-5.598428	-3.812334	 37.924440	-2.927599	-2.450526	 36.184240	 0.754587	-1.378229	 35.397820	-2.634230	 0.454367	 2.605914	-0.617946	 0.729544	 7.571720	-0.198139	 94.718710	 86.901870	 171.572200	-53.449530	 70.065370	 71.781160	-3.180780	-12.957600	 25.966560	-21.272730	-18.272160	 10.089900	 6.437017	 35.671460	-0.771858	 2.830251	 35.756010	-7.813440	-2.350882	 35.473990	 5.254307
-7.115822	-19.897670	-0.122933	-42.781630	 8.049559	 1.789234	 4.505171	-22.336900	 174.118800	-1.734215	-40.561080	-0.277494	 0.018995	 84.812540	-0.572768	-2.385619	 28.500390	-0.001025	-2.452801	-23.212320	-178.767900	-0.089444	-41.327890	 0.047127	-0.426573	 85.709790	 0.726153	 2.407684	 17.688670	-0.218619	-0.263939	 9.135963	-0.462232	 0.345348	 6.904025	-2.395227	 0.617588	 4.550545	 0.016343	-115.594300	 89.391550	-153.609600	 55.850440	 59.314680	-77.943460	-3.702372	-4.210030	-21.291990	 4.474531	-17.473310	-5.607712	-3.812334	 37.924440	-2.927599	-2.450526	 36.184240	 0.754587	-1.378229	 35.397820	-2.634230	 0.447242	 2.540347	-0.597649	 0.729803	 7.557182	-0.234125	 94.720030	 86.894990	 171.559400	-53.365520	 69.803450	 71.837320	-3.167272	-12.935110	 26.172320	-21.087480	-18.308220	 10.098760	 6.437017	 35.671460	-0.771858	 2.830251	 35.756010	-7.813440	-2.350882	 35.473990	 5.254307
-7.115085	-19.897340	-0.123922	-42.799870	 8.038323	 1.818599	 4.502717	-22.585830	 174.086700	-1.756419	-40.923950	-0.301100	 0.114601	 84.924910	-0.689510	-2.385358	 28.558230	-0.002282	-2.436045	-23.400730	-178.764800	-0.074841	-41.626020	 0.074670	-0.560566	 85.804140	 0.890496	 2.407666	 17.843170	-0.215597	-0.363202	 9.207056	-0.491327	 0.346279	 6.868395	-2.411707	 0.610323	 4.496952	 0.016433	-115.370900	 89.381350	-153.811400	 55.636690	 58.861400	-77.753180	-3.759969	-4.069537	-21.648610	 3.987071	-17.527740	-5.621633	-3.812334	 37.924440	-2.927599	-2.450526	 36.184240	 0.754587	-1.378229	 35.397820	-2.634230	 0.437891	 2.441981	-0.580540	 0.726956	 7.551663	-0.279937	 94.727250	 86.888570	 171.537400	-53.215190	 69.460890	 71.869620	-3.155183	-12.927400	 26.482670	-20.862080	-18.363500	 10.112680	 6.437017	 35.671460	-0.771858	 2.830251	 35.756010	-7.813440	-2.350882	 35.473990	 5.254307
-7.114098	-19.896940	-0.125094	-42.831060	 8.034492	 1.830190	 4.518029	-22.903030	 174.062500	-1.789496	-41.332240	-0.320819	 0.218721	 85.047100	-0.808406	-2.385195	 28.595340	-0.003081	-2.424497	-23.627140	-178.737400	-0.061296	-41.975690	 0.101156	-0.705511	 85.905480	 1.062669	 2.407646	 17.988740	-0.212746	-0.484941	 9.294491	-0.508298	 0.348986	 6.827386	-2.422430	 0.599575	 4.436010	 0.016465	-115.051600	 89.366650	-154.100600	 55.362370	 58.405880	-77.558780	-3.780324	-3.956588	-22.060770	 3.571337	-17.596190	-5.638582	-3.812334	 37.924440	-2.927599	-2.450526	 36.184240	 0.754587	-1.378229	 35.397820	-2.634230	 0.426908	 2.322687	-0.570730	 0.717659	 7.552907	-0.303703	 94.739230	 86.882280	 171.507400	-52.991590	 69.085710	 71.846950	-3.138067	-12.937430	 26.869060	-20.624480	-18.433660	 10.130810	 6.437017	 35.671460	-0.771858	 2.830251	 35.756010	-7.813440	-2.350882	 35.473990	 5.254307
-7.113049	-19.896430	-0.126389	-42.872040	 8.050340	 1.838063	 4.546715	-23.215950	 174.041900	-1.824188	-41.775170	-0.334833	 0.327710	 85.176320	-0.924113	-2.385110	 28.614780	-0.003499	-2.415086	-23.893350	-178.706500	-0.053462	-42.367950	 0.123884	-0.855953	 86.011840	 1.234266	 2.407613	 18.134830	-0.209884	-0.628257	 9.396085	-0.518307	 0.349538	 6.780801	-2.427689	 0.584422	 4.369030	 0.016392	-114.693700	 89.348690	-154.419400	 55.025650	 58.005980	-77.363230	-3.703798	-3.919144	-22.515230	 3.354699	-17.676180	-5.657210	-3.812334	 37.924440	-2.927599	-2.450526	 36.184240	 0.754587	-1.378229	 35.397820	-2.634230	 0.413683	 2.191447	-0.564387	 0.701618	 7.554557	-0.303443	 94.754780	 86.875320	 171.469900	-52.713850	 68.696570	 71.794640	-3.107906	-12.961850	 27.311400	-20.386250	-18.521750	 10.145690	 6.437017	 35.671460	-0.771858	 2.830251	 35.756010	-7.813440	-2.350882	 35.473990	 5.254307
-7.111880	-19.895790	-0.127859	-42.916760	 8.073982	 1.846902	 4.588583	-23.542810	 174.024800	-1.864325	-42.264300	-0.345586	 0.442022	 85.316380	-1.039859	-2.384998	 28.638720	-0.004020	-2.405769	-24.213470	-178.674000	-0.054819	-42.812890	 0.141743	-1.016515	 86.126120	 1.408731	 2.407564	 18.297850	-0.206679	-0.797386	 9.514194	-0.528822	 0.348103	 6.726003	-2.433935	 0.568541	 4.293838	 0.016320	-114.281400	 89.329140	-154.790800	 54.620410	 57.666550	-77.167640	-3.552293	-3.957257	-23.028500	 3.324435	-17.769060	-5.677839	-3.812334	 37.924440	-2.927599	-2.450526	 36.184240	 0.754587	-1.378229	 35.397820	-2.634230	 0.398778	 2.050194	-0.554801	 0.686389	 7.550657	-0.291324	 94.773670	 86.866060	 171.423200	-52.394860	 68.288320	 71.748750	-3.056507	-12.998120	 27.811470	-20.142290	-18.625410	 10.161230	 6.437017	 35.671460	-0.771858	 2.830251	 35.756010	-7.813440	-2.350882	 35.473990	 5.254307
-7.110394	-19.894910	-0.129694	-42.971940	 8.110699	 1.855613	 4.650277	-23.942660	 174.011700	-1.919434	-42.859820	-0.355909	 0.571272	 85.484730	-1.167292	-2.384859	 28.670240	-0.004706	-2.393791	-24.639680	-178.635300	-0.070767	-43.367030	 0.154034	-1.207991	 86.262830	 1.605556	 2.407493	 18.512130	-0.202481	-1.014218	 9.663817	-0.544100	 0.343104	 6.654293	-2.439517	 0.554560	 4.200640	 0.016373	-113.787600	 89.305070	-155.240200	 54.127930	 57.299040	-76.986450	-3.421395	-4.013303	-23.682320	 3.306997	-17.886140	-5.703633	-3.812334	 37.924440	-2.927599	-2.450526	 36.184240	 0.754587	-1.378229	 35.397820	-2.634230	 0.385856	 1.887926	-0.545604	 0.673465	 7.533503	-0.254720	 94.796530	 86.851600	 171.361500	-52.006630	 67.821690	 71.732470	-2.966314	-13.048620	 28.421950	-19.863620	-18.743960	 10.193230	 6.437017	 35.671460	-0.771858	 2.830251	 35.756010	-7.813440	-2.350882	 35.473990	 5.254307
-7.108775	-19.893860	-0.131659	-43.029430	 8.160874	 1.855104	 4.712223	-24.382380	 174.001200	-1.976544	-43.485450	-0.367090	 0.701951	 85.660130	-1.296266	-2.384627	 28.720890	-0.005802	-2.379045	-25.126420	-178.594400	-0.094461	-43.960060	 0.163169	-1.407774	 86.404790	 1.806123	 2.407385	 18.763450	-0.197537	-1.251136	 9.821372	-0.552716	 0.336772	 6.572137	-2.441172	 0.546729	 4.098377	 0.016630	-113.326100	 89.280450	-155.655900	 53.620420	 56.950600	-76.848590	-3.462079	-4.020793	-24.408070	 3.155930	-18.011900	-5.731732	-3.812334	 37.924440	-2.927599	-2.450526	 36.184240	 0.754587	-1.378229	 35.397820	-2.634230	 0.378676	 1.722994	-0.546129	 0.666149	 7.502222	-0.199293	 94.819410	 86.832510	 171.292200	-51.609290	 67.365730	 71.772830	-2.839785	-13.104170	 29.055040	-19.593100	-18.870530	 10.226940	 6.437017	 35.671460	-0.771858	 2.830251	 35.756010	-7.813440	-2.350882	 35.473990	 5.254307
